<?xml version="1.0" encoding="UTF-8" standalone="no"?>
<svg
   height="48"
   viewBox="0 96 960 960"
   width="48"
   version="1.1"
   id="svg2879"
   sodipodi:docname="logo.svg"
   inkscape:version="1.2.2 (732a01da63, 2022-12-09, custom)"
   xmlns:inkscape="http://www.inkscape.org/namespaces/inkscape"
   xmlns:sodipodi="http://sodipodi.sourceforge.net/DTD/sodipodi-0.dtd"
   xmlns="http://www.w3.org/2000/svg"
   xmlns:svg="http://www.w3.org/2000/svg">
  <defs
     id="defs2883" />
  <sodipodi:namedview
     id="namedview2881"
     pagecolor="#ffffff"
     bordercolor="#cccccc"
     borderopacity="1"
     inkscape:showpageshadow="0"
     inkscape:pageopacity="1"
     inkscape:pagecheckerboard="0"
     inkscape:deskcolor="#d1d1d1"
     showgrid="false"
     inkscape:zoom="11.357903"
     inkscape:cx="13.822974"
     inkscape:cy="17.961062"
     inkscape:window-width="1920"
     inkscape:window-height="1001"
     inkscape:window-x="0"
     inkscape:window-y="0"
     inkscape:window-maximized="1"
     inkscape:current-layer="svg2879"
     showguides="false" />
  <path
     id="path3045"
     style="fill:#6bd1ff;fill-opacity:1;stroke-width:73.9479;stroke-linecap:round;stroke-linejoin:round"
     d="M 480 96 A 480 480 0 0 0 0 576 A 480 480 0 0 0 480 1056 A 480 480 0 0 0 960 576 A 480 480 0 0 0 480 96 z M 598.75 243.89062 C 607.3441 243.43831 615.26286 246.84879 622.5 254.08594 L 682.1875 313.77344 L 740.54688 255.45312 C 747.45474 248.21598 755.51548 244.59375 764.72656 244.59375 C 773.93763 244.59375 782.13786 248.21598 789.375 255.45312 C 796.61214 262.69027 800.48518 270.56994 800.9375 279.16406 C 801.38982 287.75816 797.97933 295.67692 790.74219 302.91406 L 731.05469 362.64062 L 789.375 421 C 796.61214 428.23714 800.23438 436.36762 800.23438 445.41406 C 800.23437 454.46051 796.61214 462.59098 789.375 469.82812 C 782.13786 477.06527 774.2191 480.93832 765.625 481.39062 C 757.03088 481.84294 749.15121 478.43247 741.91406 471.19531 L 682.1875 411.46875 L 623.82812 469.82812 C 616.92024 477.06527 608.85952 480.6875 599.64844 480.6875 C 590.43736 480.6875 582.23715 477.06527 575 469.82812 C 567.76285 462.59098 563.88982 454.67223 563.4375 446.07812 C 562.98519 437.48401 566.39566 429.56527 573.63281 422.32812 L 633.32031 362.64062 L 575 304.28125 C 567.76285 297.37339 564.14062 289.31265 564.14062 280.10156 C 564.14062 270.89048 567.76285 262.69027 575 255.45312 C 582.23714 248.21598 590.15589 244.34293 598.75 243.89062 z M 192.30469 328.69531 L 390.42969 328.69531 C 400.22969 328.69531 408.35711 331.89406 414.76562 338.22656 C 421.17321 344.55907 424.375 352.63823 424.375 362.48438 C 424.375 372.32962 421.17321 380.46008 414.76562 386.89844 C 408.35712 393.33588 400.22969 396.54688 390.42969 396.54688 L 192.30469 396.54688 C 182.50469 396.54688 174.41632 393.3872 168.00781 387.05469 C 161.60023 380.72217 158.39844 372.64302 158.39844 362.79688 C 158.39844 352.95164 161.60023 344.82118 168.00781 338.38281 C 174.41632 331.94538 182.50469 328.69531 192.30469 328.69531 z M 291.21094 601.46875 C 301.05616 601.46875 309.22571 604.67053 315.66406 611.07812 C 322.10151 617.48662 325.3125 625.575 325.3125 635.375 L 325.3125 720.88281 L 410.78125 720.88281 C 420.58126 720.88281 428.70869 724.04249 435.11719 730.375 C 441.52478 736.70749 444.72656 744.78667 444.72656 754.63281 C 444.72656 764.47804 441.52478 772.64758 435.11719 779.08594 C 428.70869 785.52338 420.58125 788.73438 410.78125 788.73438 L 325.3125 788.73438 L 325.3125 874.20312 C 325.3125 884.00314 322.15283 892.13057 315.82031 898.53906 C 309.48782 904.94665 301.36958 908.14844 291.52344 908.14844 C 281.67821 908.14844 273.54772 904.94665 267.10938 898.53906 C 260.67193 892.13057 257.46094 884.00314 257.46094 874.20312 L 257.46094 788.73438 L 171.95312 788.73438 C 162.15311 788.73438 154.06474 785.57469 147.65625 779.24219 C 141.24867 772.90967 138.04688 764.79146 138.04688 754.94531 C 138.04688 745.10009 141.24867 736.9696 147.65625 730.53125 C 154.06474 724.09381 162.15311 720.88281 171.95312 720.88281 L 257.46094 720.88281 L 257.46094 635.375 C 257.46094 625.575 260.62062 617.48662 266.95312 611.07812 C 273.28564 604.67053 281.36479 601.46875 291.21094 601.46875 z M 583.125 647.60156 L 788.04688 647.60156 C 797.84689 647.60156 805.93525 650.76125 812.34375 657.09375 C 818.75134 663.42626 821.95312 671.50541 821.95312 681.35156 C 821.95312 691.19678 818.75134 699.36633 812.34375 705.80469 C 805.93525 712.24213 797.84689 715.45312 788.04688 715.45312 L 583.125 715.45312 C 573.32501 715.45313 565.23664 712.29344 558.82812 705.96094 C 552.42054 699.62842 549.21875 691.5102 549.21875 681.66406 C 549.21875 671.81884 552.42054 663.68835 558.82812 657.25 C 565.23664 650.81256 573.325 647.60156 583.125 647.60156 z M 583.125 794.16406 L 788.04688 794.16406 C 797.84689 794.16406 805.93525 797.07295 812.34375 802.95312 C 818.75134 808.8333 821.95312 816.70072 821.95312 826.54688 C 821.95312 836.3921 818.75134 844.56165 812.34375 851 C 805.93525 857.43743 797.84689 860.64844 788.04688 860.64844 L 583.125 860.64844 C 573.32501 860.64844 565.23664 857.43743 558.82812 851 C 552.42054 844.56165 549.21875 836.3921 549.21875 826.54688 C 549.21875 816.70072 552.42054 808.8333 558.82812 802.95312 C 565.23664 797.07295 573.325 794.16406 583.125 794.16406 z " />
</svg>
